<svg xmlns="http://www.w3.org/2000/svg" width="200" height="160" viewBox="0 0 200 160">
  <rect width="200" height="160" fill="#0a0a1a"/>
  <rect x="60" y="10" width="80" height="140" rx="4" fill="#111" stroke="#222" stroke-width="1"/>
  <rect x="64" y="110" width="18" height="18" rx="2" fill="#00ffff"/>
  <rect x="84" y="110" width="18" height="18" rx="2" fill="#00ffff"/>
  <rect x="104" y="110" width="18" height="18" rx="2" fill="#00ffff"/>
  <rect x="124" y="110" width="18" height="18" rx="2" fill="#00ffff"/>
  <rect x="64" y="90" width="18" height="18" rx="2" fill="#ff7f00"/>
  <rect x="84" y="90" width="18" height="18" rx="2" fill="#ff7f00"/>
  <rect x="104" y="90" width="18" height="18" rx="2" fill="#ff7f00"/>
  <rect x="104" y="70" width="18" height="18" rx="2" fill="#ff7f00"/>
  <rect x="64" y="70" width="18" height="18" rx="2" fill="#ffff00"/>
  <rect x="84" y="70" width="18" height="18" rx="2" fill="#ffff00"/>
  <rect x="64" y="50" width="18" height="18" rx="2" fill="#ffff00"/>
  <rect x="84" y="50" width="18" height="18" rx="2" fill="#ffff00"/>
  <rect x="104" y="40" width="18" height="18" rx="2" fill="#8000ff" opacity="0.5"/>
  <rect x="124" y="40" width="18" height="18" rx="2" fill="#8000ff" opacity="0.5"/>
  <rect x="104" y="20" width="18" height="18" rx="2" fill="#8000ff"/>
  <rect x="124" y="20" width="18" height="18" rx="2" fill="#8000ff"/>
</svg>
