<svg xmlns="http://www.w3.org/2000/svg" width="200" height="160" viewBox="0 0 200 160">
  <rect width="200" height="160" fill="#121213"/>
  <rect x="14" y="14" width="32" height="32" rx="3" fill="#538d4e"/>
  <text x="30" y="37" font-family="Arial" font-size="20" font-weight="900" fill="#fff" text-anchor="middle">C</text>
  <rect x="52" y="14" width="32" height="32" rx="3" fill="#b59f3b"/>
  <text x="68" y="37" font-family="Arial" font-size="20" font-weight="900" fill="#fff" text-anchor="middle">R</text>
  <rect x="90" y="14" width="32" height="32" rx="3" fill="#3a3a3c"/>
  <text x="106" y="37" font-family="Arial" font-size="20" font-weight="900" fill="#fff" text-anchor="middle">A</text>
  <rect x="128" y="14" width="32" height="32" rx="3" fill="#538d4e"/>
  <text x="144" y="37" font-family="Arial" font-size="20" font-weight="900" fill="#fff" text-anchor="middle">N</text>
  <rect x="166" y="14" width="32" height="32" rx="3" fill="#3a3a3c"/>
  <text x="182" y="37" font-family="Arial" font-size="20" font-weight="900" fill="#fff" text-anchor="middle">E</text>
  <rect x="14" y="52" width="32" height="32" rx="3" fill="#b59f3b"/>
  <text x="30" y="75" font-family="Arial" font-size="20" font-weight="900" fill="#fff" text-anchor="middle">S</text>
  <rect x="52" y="52" width="32" height="32" rx="3" fill="#538d4e"/>
  <text x="68" y="75" font-family="Arial" font-size="20" font-weight="900" fill="#fff" text-anchor="middle">L</text>
  <rect x="90" y="52" width="32" height="32" rx="3" fill="#3a3a3c"/>
  <text x="106" y="75" font-family="Arial" font-size="20" font-weight="900" fill="#fff" text-anchor="middle">A</text>
  <rect x="128" y="52" width="32" height="32" rx="3" fill="#538d4e"/>
  <text x="144" y="75" font-family="Arial" font-size="20" font-weight="900" fill="#fff" text-anchor="middle">T</text>
  <rect x="166" y="52" width="32" height="32" rx="3" fill="#538d4e"/>
  <text x="182" y="75" font-family="Arial" font-size="20" font-weight="900" fill="#fff" text-anchor="middle">E</text>
  <rect x="14" y="90" width="32" height="32" rx="3" fill="#538d4e" stroke="#538d4e" stroke-width="2"/>
  <text x="30" y="113" font-family="Arial" font-size="20" font-weight="900" fill="#fff" text-anchor="middle">G</text>
  <rect x="52" y="90" width="32" height="32" rx="3" fill="#538d4e"/>
  <text x="68" y="113" font-family="Arial" font-size="20" font-weight="900" fill="#fff" text-anchor="middle">R</text>
  <rect x="90" y="90" width="32" height="32" rx="3" fill="#538d4e"/>
  <text x="106" y="113" font-family="Arial" font-size="20" font-weight="900" fill="#fff" text-anchor="middle">A</text>
  <rect x="128" y="90" width="32" height="32" rx="3" fill="#538d4e"/>
  <text x="144" y="113" font-family="Arial" font-size="20" font-weight="900" fill="#fff" text-anchor="middle">P</text>
  <rect x="166" y="90" width="32" height="32" rx="3" fill="#538d4e"/>
  <text x="182" y="113" font-family="Arial" font-size="20" font-weight="900" fill="#fff" text-anchor="middle">E</text>
  <text x="100" y="150" font-family="Arial" font-size="12" fill="#aaa" text-anchor="middle" letter-spacing="3">WORDLE</text>
</svg>
